<?xml version="1.0" encoding="UTF-8"?>
<svg width="268px" height="120px" viewBox="0 0 268 120" version="1.1"
    xmlns="http://www.w3.org/2000/svg"
    xmlns:xlink="http://www.w3.org/1999/xlink">
    <!-- Generator: Sketch 61.2 (89653) - https://sketch.com -->
    <title>footer-logo@3x</title>
    <desc>Created with Sketch.</desc>
    <defs>
        <polygon id="path-1" points="0.076478325 0.287411064 268.950952 0.287411064 268.950952 46.9205361 0.076478325 46.9205361"></polygon>
    </defs>
    <g id="Page-1" stroke="none" stroke-width="1" fill="none" fill-rule="evenodd">
        <g id="Sneak-Peak" transform="translate(-473.000000, -2147.000000)">
            <g id="footer-logo" transform="translate(473.000000, 2128.000000)">
                <g id="Group-29">
                    <g id="Group-2" transform="translate(0.000000, 0.120220)">
                        <mask id="mask-2" fill="white">
                            <use xlink:href="#path-1"></use>
                        </mask>
                        <g id="Clip-1"></g>
                        <g id="XT-eSUMMIT-2020" mask="url(#mask-2)" fill-rule="nonzero">
                            <g transform="translate(0.076478, 19.023422)">
                                <path d="M7.08361291,23.8212637 L12.1347968,16.4686528 L16.9468714,23.8212637 L24.0304843,23.8212637 L15.5122156,11.8060215 L22.8648265,1.28521247 L15.6616589,1.28521247 L12.1646855,7.11350157 L8.81715531,1.28521247 L1.58409909,1.28521247 L8.81715531,11.8060215 L1.20792265e-13,23.8212637 L7.08361291,23.8212637 Z M34.9099573,23.8212637 L34.9099573,6.24673037 L39.7220319,6.24673037 L39.7220319,1.28521247 L24.2397049,1.28521247 L24.2397049,6.24673037 L29.0517795,6.24673037 L29.0517795,23.8212637 L34.9099573,23.8212637 Z" id="XT" fill="#EE4550"></path>
                                <path d="M57.5057858,24.2098163 C60.2854314,24.2098163 62.4075264,22.8947151 63.9617368,20.2346242 L61.9293078,19.0988551 C60.6142067,21.2807274 59.4784375,22.0279439 57.5954518,22.0279439 C55.0549155,22.0279439 53.2615958,20.1748469 53.1420412,17.3055353 L64.0812915,17.3055353 L64.0812915,16.8870941 C64.0812915,12.4037948 61.4212006,9.47470588 57.3862312,9.47470588 C53.2914845,9.47470588 50.6015049,12.5233494 50.6015049,16.8870941 C50.6015049,21.1611727 53.3811505,24.2098163 57.5057858,24.2098163 Z M61.5407552,15.2731063 L53.2914845,15.2731063 C53.6501484,13.2107886 55.3538022,11.6565782 57.4161198,11.6565782 C59.5083262,11.6565782 61.1223139,13.091234 61.5407552,15.2731063 Z M74.0939933,24.2098163 C78.099074,24.2098163 81.2672722,21.1013954 81.2672722,17.2756467 C81.2672722,14.3764465 79.7728391,12.73257 76.156311,11.0886936 L74.034216,10.1322564 C71.9121209,9.17581926 70.8361291,8.09982742 70.8361291,6.75483763 C70.8361291,4.72240861 72.5098942,3.28775283 74.5722119,3.28775283 C76.3057543,3.28775283 77.3518574,3.88552607 78.4278493,5.73862312 L80.4303896,4.42352199 C79.0853998,2.06231768 77.1426368,0.896659862 74.6319892,0.896659862 C71.0752384,0.896659862 68.2955928,3.34753015 68.2955928,6.72494897 C68.2955928,9.26548524 69.5509166,10.700141 72.8685581,12.2543514 L74.9009872,13.2107886 C77.7105214,14.5258898 78.6968472,15.482327 78.6968472,17.42509 C78.6968472,19.9058489 76.6345296,21.8785006 74.1836593,21.8785006 C71.732789,21.8785006 70.2084672,20.4737335 69.5808053,17.7239766 L67.1598237,18.4114158 C67.9668176,22.0279439 70.4774652,24.2098163 74.0939933,24.2098163 Z M93.8802876,24.2098163 C96.3311579,24.2098163 98.3635869,23.3729337 99.947686,21.6991687 C101.531785,20.0552923 101.920338,17.9331972 101.920338,15.7812136 L101.920338,1.28521247 L99.3798014,1.28521247 L99.3798014,15.0937743 C99.3798014,16.9169827 99.3499127,18.6206365 98.3336982,19.8460716 C97.2577064,21.1910614 95.4643867,21.8785006 93.8802876,21.8785006 C92.2065225,21.8785006 90.4729801,21.1013954 89.4268769,19.8460716 C88.4106624,18.6206365 88.3807737,16.9169827 88.3807737,15.0937743 L88.3807737,1.28521247 L85.8402375,1.28521247 L85.8402375,15.7812136 C85.8402375,18.1125292 86.3184561,20.1449582 87.8128892,21.6991687 C89.3969883,23.3729337 91.4294173,24.2098163 93.8802876,24.2098163 Z M119.315539,24.7478122 L127.026814,8.15960475 L129.11902,23.8212637 L131.689445,23.8212637 L128.192472,1.29674049e-13 L119.345428,19.0390777 L110.707604,1.29674049e-13 L106.971522,23.8212637 L109.541946,23.8212637 L111.753707,8.12971608 L119.315539,24.7478122 Z M148.486873,24.7478122 L156.198148,8.15960475 L158.290354,23.8212637 L160.860779,23.8212637 L157.363806,1.29674049e-13 L148.516762,19.0390777 L139.878938,1.29674049e-13 L136.142856,23.8212637 L138.713281,23.8212637 L140.925042,8.12971608 L148.486873,24.7478122 Z M168.631831,23.8212637 L168.631831,1.28521247 L166.091295,1.28521247 L166.091295,23.8212637 L168.631831,23.8212637 Z M179.959634,23.8212637 L179.959634,3.61652811 L185.429259,3.61652811 L185.429259,1.28521247 L171.979362,1.28521247 L171.979362,3.61652811 L177.448987,3.61652811 L177.448987,23.8212637 L179.959634,23.8212637 Z" id="eSUMMIT" fill="#000000"></path>
                                <path d="M211.013954,23.8212637 L211.013954,21.4600594 L201.569137,21.4600594 L206.171991,16.2295435 C210.236849,11.5968009 211.043843,10.1023678 211.043843,7.62160883 C211.043843,3.88552607 207.905533,0.956437186 204.020007,0.956437186 C200.134481,0.956437186 197.47439,3.34753015 196.996172,7.86071813 L199.536708,7.86071813 C199.835595,4.51318797 201.688692,3.25786417 204.020007,3.25786417 C206.440989,3.25786417 208.563084,5.08107255 208.563084,7.59172017 C208.563084,9.26548524 207.666424,10.8495843 204.647669,14.3465578 L196.458176,23.8212637 L211.013954,23.8212637 Z M222.760198,24.1799276 C227.303275,24.1799276 230.830137,19.278187 230.830137,12.5831267 C230.830137,5.88806643 227.303275,0.956437186 222.760198,0.956437186 C218.217122,0.956437186 214.720148,5.88806643 214.720148,12.5831267 C214.720148,19.278187 218.217122,24.1799276 222.760198,24.1799276 Z M222.760198,21.8785006 C219.532223,21.8785006 217.171019,17.9033086 217.171019,12.5831267 C217.171019,7.26294488 219.532223,3.25786417 222.760198,3.25786417 C225.988174,3.25786417 228.379267,7.26294488 228.379267,12.5831267 C228.379267,17.9033086 225.988174,21.8785006 222.760198,21.8785006 Z M247.896563,23.8212637 L247.896563,21.4600594 L238.451746,21.4600594 L243.0546,16.2295435 C247.119458,11.5968009 247.926452,10.1023678 247.926452,7.62160883 C247.926452,3.88552607 244.788142,0.956437186 240.902616,0.956437186 C237.01709,0.956437186 234.356999,3.34753015 233.878781,7.86071813 L236.419317,7.86071813 C236.718204,4.51318797 238.571301,3.25786417 240.902616,3.25786417 C243.323598,3.25786417 245.445693,5.08107255 245.445693,7.59172017 C245.445693,9.26548524 244.549033,10.8495843 241.530278,14.3465578 L233.340785,23.8212637 L247.896563,23.8212637 Z M259.642807,24.1799276 C264.185884,24.1799276 267.712746,19.278187 267.712746,12.5831267 C267.712746,5.88806643 264.185884,0.956437186 259.642807,0.956437186 C255.099731,0.956437186 251.602757,5.88806643 251.602757,12.5831267 C251.602757,19.278187 255.099731,24.1799276 259.642807,24.1799276 Z M259.642807,21.8785006 C256.414832,21.8785006 254.053628,17.9033086 254.053628,12.5831267 C254.053628,7.26294488 256.414832,3.25786417 259.642807,3.25786417 C262.870783,3.25786417 265.261876,7.26294488 265.261876,12.5831267 C265.261876,17.9033086 262.870783,21.8785006 259.642807,21.8785006 Z" id="2020" fill="#EE4856"></path>
                            </g>
                        </g>
                    </g>
                    <polygon id="Fill-3" fill="#38877A" points="183.419832 100.063961 183.419832 110.504185 206.22343 97.3312595"></polygon>
                    <polygon id="Fill-4" fill="#6DB3A6" points="169.651122 76.2096249 183.420019 57.8193858 160.615488 70.9913782"></polygon>
                    <polygon id="Fill-5" fill="#275B52" points="183.419832 110.504371 183.419832 100.064147 160.615301 97.3305134"></polygon>
                    <polygon id="Fill-6" fill="#88CFC2" points="197.188356 76.2096249 206.22399 97.3306999 206.229586 70.9857823"></polygon>
                    <polygon id="Fill-7" fill="#A1D7D0" points="197.188356 76.2096249 206.229586 70.9857823 183.419459 57.8193858"></polygon>
                    <polygon id="Fill-8" fill="#38877A" points="169.651122 76.2096249 160.615488 70.9913782 160.615488 97.3306999"></polygon>
                    <polygon id="Fill-9" fill="#6DC6B6" points="197.188356 76.2096249 183.419459 57.8193858 169.651495 76.2096249"></polygon>
                    <polygon id="Fill-10" fill="#429D8C" points="197.188356 76.2096249 183.419459 100.063401 206.22399 97.3306999"></polygon>
                    <polygon id="Fill-11" fill="#429D8C" points="183.419739 100.063588 169.650842 76.2098115 160.615208 97.3308864"></polygon>
                    <polygon id="Fill-12" fill="#5CC2B0" points="197.188356 76.2096249 169.651495 76.2096249 183.419459 100.063401"></polygon>
                    <polygon id="Fill-13" fill="#CEB630" points="109.731754 97.8387212 132.700433 111.106778 132.700433 84.5753278 109.731754 71.3110017"></polygon>
                    <polygon id="Fill-14" fill="#FFE437" points="109.73166 71.3113748 132.699407 84.5757008 155.669952 71.3113748 132.699407 58.0423854"></polygon>
                    <polygon id="Fill-15" fill="#B79E31" points="132.700153 84.575421 132.700153 111.106871 155.670698 97.8388144 155.670698 71.311095"></polygon>
                    <polygon id="Fill-16" fill="#3F7D9F" points="58.9302801 70.8978322 58.9302801 97.424619 81.9008248 57.6288428"></polygon>
                    <polygon id="Fill-17" fill="#68B0E1" points="104.872489 97.4249921 104.872489 70.8982053 81.9010113 57.6292159"></polygon>
                    <polygon id="Fill-18" fill="#3F7D9F" points="58.9298137 97.4248988 81.9003584 110.692956 104.872768 97.4248988"></polygon>
                    <polygon id="Fill-19" fill="#4C94D0" points="104.872489 97.4249921 81.9010113 57.6292159 58.9304666 97.4249921"></polygon>
                    <polygon id="Fill-20" fill="#EE4755" points="30.8293455 93.1171173 61.2602575 110.690344 30.6353517 57.6265112"></polygon>
                    <polygon id="Fill-21" fill="#8A1B30" points="0 110.690717 61.260071 110.690717 30.8291589 93.1174903"></polygon>
                    <polygon id="Fill-22" fill="#B32538" points="0 110.690717 30.8291589 93.1174903 30.6351651 57.6268842"></polygon>
                    <polygon id="Fill-23" fill="#C1C1C2" points="256.00998 94.4374876 249.251908 110.728303 256.00998 106.742104 266.842855 88.0459515 266.842855 80.5165671"></polygon>
                    <polygon id="Fill-24" fill="#626363" points="210.329197 88.0463245 221.162072 106.742477 227.921077 110.728677 221.162072 94.4378606 210.329197 80.5169402"></polygon>
                    <polygon id="Fill-25" fill="#DADCDB" points="221.161606 61.8203214 238.586539 64.3235875 256.01054 61.8203214 249.251535 57.8341218 227.921544 57.8341218"></polygon>
                    <polygon id="Fill-26" fill="#8C8C8C" points="221.161606 94.4374876 227.921544 110.728303 249.251535 110.728303 256.009607 94.4374876 238.586539 84.2863889"></polygon>
                    <polygon id="Fill-27" fill="#B2B3B4" points="238.586633 84.2866687 256.010633 94.4377674 266.843508 80.5168469 256.010633 61.8206944 238.586633 64.3239606"></polygon>
                    <polygon id="Fill-28" fill="#969696" points="221.161606 94.4375808 238.586539 84.2864822 238.586539 64.323774 221.161606 61.8205079 210.328731 80.5166604"></polygon>
                </g>
                <path d="M5.202,133.734 C7.614,133.734 9.522,131.862 9.522,129.558 C9.522,127.812 8.622,126.822 6.444,125.832 L5.166,125.256 C3.888,124.68 3.24,124.032 3.24,123.222 C3.24,121.998 4.248,121.134 5.49,121.134 C6.534,121.134 7.164,121.494 7.812,122.61 L9.018,121.818 C8.208,120.396 7.038,119.694 5.526,119.694 C3.384,119.694 1.71,121.17 1.71,123.204 C1.71,124.734 2.466,125.598 4.464,126.534 L5.688,127.11 C7.38,127.902 7.974,128.478 7.974,129.648 C7.974,131.142 6.732,132.33 5.256,132.33 C3.78,132.33 2.862,131.484 2.484,129.828 L1.026,130.242 C1.512,132.42 3.024,133.734 5.202,133.734 Z M24.6263073,133.734 C26.3003073,133.734 27.5783073,132.942 28.5143073,131.34 L27.2903073,130.656 C26.4983073,131.97 25.8143073,132.42 24.6803073,132.42 C23.1503073,132.42 22.0703073,131.304 21.9983073,129.576 L28.5863073,129.576 L28.5863073,129.324 C28.5863073,126.624 26.9843073,124.86 24.5543073,124.86 C22.0883073,124.86 20.4683073,126.696 20.4683073,129.324 C20.4683073,131.898 22.1423073,133.734 24.6263073,133.734 Z M27.0563073,128.352 L22.0883073,128.352 C22.3043073,127.11 23.3303073,126.174 24.5723073,126.174 C25.8323073,126.174 26.8043073,127.038 27.0563073,128.352 Z M41.3506147,138.252 L41.3506147,132.33 C42.1606147,133.266 43.1326147,133.734 44.3026147,133.734 C46.6606147,133.734 48.3346147,131.808 48.3346147,129.324 C48.3346147,126.732 46.5706147,124.842 44.2666147,124.842 C43.1326147,124.842 42.1606147,125.31 41.3506147,126.246 L41.3506147,125.04 L39.8926147,125.04 L39.8926147,138.252 L41.3506147,138.252 Z M44.0866147,132.42 C42.4126147,132.42 41.2426147,131.088 41.2426147,129.324 C41.2426147,127.452 42.5026147,126.156 44.0866147,126.156 C45.6706147,126.156 46.8586147,127.524 46.8586147,129.378 C46.8586147,131.034 45.6886147,132.42 44.0866147,132.42 Z M62.592922,133.734 L62.898922,132.42 C61.602922,132.42 61.116922,131.844 61.116922,130.08 L61.116922,126.39 L62.898922,126.39 L62.898922,125.04 L61.116922,125.04 L61.116922,121.998 L59.658922,121.998 L59.658922,125.04 L58.776922,125.04 L58.776922,126.39 L59.658922,126.39 L59.658922,130.332 C59.658922,132.87 60.918922,133.734 62.592922,133.734 Z M77.6072293,133.734 C79.2812293,133.734 80.5592293,132.942 81.4952293,131.34 L80.2712293,130.656 C79.4792293,131.97 78.7952293,132.42 77.6612293,132.42 C76.1312293,132.42 75.0512293,131.304 74.9792293,129.576 L81.5672293,129.576 L81.5672293,129.324 C81.5672293,126.624 79.9652293,124.86 77.5352293,124.86 C75.0692293,124.86 73.4492293,126.696 73.4492293,129.324 C73.4492293,131.898 75.1232293,133.734 77.6072293,133.734 Z M80.0372293,128.352 L75.0692293,128.352 C75.2852293,127.11 76.3112293,126.174 77.5532293,126.174 C78.8132293,126.174 79.7852293,127.038 80.0372293,128.352 Z M94.3315366,133.5 L94.3315366,128.91 C94.3315366,127.074 94.9435366,126.156 96.1675366,126.156 C97.1935366,126.156 97.7155366,126.93 97.7155366,128.478 L97.7155366,133.5 L99.1735366,133.5 L99.1735366,128.802 C99.1735366,127.038 99.7675366,126.156 100.991537,126.156 C102.053537,126.156 102.503537,126.822 102.503537,128.37 L102.503537,133.5 L103.943537,133.5 L103.943537,128.136 C103.943537,127.074 103.745537,126.282 103.331537,125.76 C102.845537,125.13 102.107537,124.842 101.207537,124.842 C100.091537,124.842 99.2635366,125.292 98.7235366,126.21 C98.2375366,125.292 97.4635366,124.842 96.4195366,124.842 C95.5735366,124.842 94.8715366,125.22 94.3315366,125.958 L94.3315366,125.04 L92.8735366,125.04 L92.8735366,133.5 L94.3315366,133.5 Z M120.181844,133.734 C122.521844,133.734 124.249844,131.826 124.249844,129.27 C124.249844,126.732 122.521844,124.86 120.217844,124.86 C119.047844,124.86 118.057844,125.31 117.265844,126.246 L117.265844,118.65 L115.807844,118.65 L115.807844,133.5 L117.265844,133.5 L117.265844,132.33 C118.039844,133.266 119.011844,133.734 120.181844,133.734 Z M119.983844,132.42 C118.345844,132.42 117.157844,131.106 117.157844,129.27 C117.157844,127.416 118.363844,126.174 120.019844,126.174 C121.585844,126.174 122.773844,127.524 122.773844,129.324 C122.773844,131.052 121.585844,132.42 119.983844,132.42 Z M139.192151,133.734 C140.866151,133.734 142.144151,132.942 143.080151,131.34 L141.856151,130.656 C141.064151,131.97 140.380151,132.42 139.246151,132.42 C137.716151,132.42 136.636151,131.304 136.564151,129.576 L143.152151,129.576 L143.152151,129.324 C143.152151,126.624 141.550151,124.86 139.120151,124.86 C136.654151,124.86 135.034151,126.696 135.034151,129.324 C135.034151,131.898 136.708151,133.734 139.192151,133.734 Z M141.622151,128.352 L136.654151,128.352 C136.870151,127.11 137.896151,126.174 139.138151,126.174 C140.398151,126.174 141.370151,127.038 141.622151,128.352 Z M155.916459,133.5 L155.916459,129.036 C155.916459,127.074 156.402459,126.228 157.590459,126.228 C157.860459,126.228 158.130459,126.318 158.418459,126.516 L159.120459,125.202 C158.670459,124.968 158.238459,124.842 157.824459,124.842 C157.428459,124.842 157.104459,124.914 156.834459,125.058 C156.600459,125.22 156.294459,125.508 155.916459,125.958 L155.916459,125.04 L154.458459,125.04 L154.458459,133.5 L155.916459,133.5 Z M189.509073,133.5 L189.509073,119.928 L186.521073,119.928 L185.729073,121.332 L187.979073,121.332 L187.979073,133.5 L189.509073,133.5 Z M209.707381,133.5 L209.707381,119.928 L206.719381,119.928 L205.927381,121.332 L208.177381,121.332 L208.177381,133.5 L209.707381,133.5 Z M226.899688,129.81 L226.899688,128.514 L223.209688,128.514 L223.209688,129.81 L226.899688,129.81 Z M242.687995,133.5 L242.687995,119.928 L239.699995,119.928 L238.907995,121.332 L241.157995,121.332 L241.157995,133.5 L242.687995,133.5 Z M265.766303,133.5 L265.766303,132.078 L260.078303,132.078 L262.850303,128.928 C265.298303,126.138 265.784303,125.238 265.784303,123.744 C265.784303,121.494 263.894303,119.73 261.554303,119.73 C259.214303,119.73 257.612303,121.17 257.324303,123.888 L258.854303,123.888 C259.034303,121.872 260.150303,121.116 261.554303,121.116 C263.012303,121.116 264.290303,122.214 264.290303,123.726 C264.290303,124.734 263.750303,125.688 261.932303,127.794 L257.000303,133.5 L265.766303,133.5 Z" id="September11-12" fill="#000000" fill-rule="nonzero"></path>
            </g>
        </g>
    </g>
</svg>